<svg xmlns="http://www.w3.org/2000/svg" viewBox="0 0 847.4 864.1"><path d="M393 645.2q-59-16.7-103-53-87.8-77.5-87.8-260.9 0-102.5 41.5-176.8T360.5 41Q436 2 535 2q98.3 0 167.8 35.2t106 102.2q36.6 67 36.6 161.2v3.4q0 97-37 151.8T701 510.6q-31.4 0-58-10.2t-40.4-26.8q-48.1 37.6-90.6 37.7-72 0-104-45t-32.1-132.9q0-85.8 30-126.3t97.6-40.4q21.7 0 43.3 12.5l9 4.9v-7.7h121.5v119.3q0 81.7 1.4 86.5.6 14.7 4.1 21t13.3 6.2q18.1 0 23.7-26.1t5.6-79.2v-4.2q0-99-47-145.1t-145.6-46q-64.8 0-112 28.3t-72.5 80.5q-25.5 52.4-25.5 122.1 0 108.2 48.9 161.9t160.5 53.6l99.8-5.6 4.8 104.7Q581 662 532.2 662 452 662 393 645.2Zm165.7-248.4a343.6 343.6 0 0 1-2.8-42.5v-78.9a161.8 161.8 0 0 0-23-2q-15.4 0-22.4 5.2t-9.4 17.8q-2.4 12.5-2.4 38.3 0 69.8 23.7 69.8 25.1 0 36.3-7.7Z"/><path d="M192.8 845.4q-59-16.7-103-53Q2 714.9 2 531.4 2 429 43.5 354.6t116.8-113.4q75.4-39 174.4-39 98.4 0 167.8 35.2t106 102.2q36.7 67 36.7 161.1v3.5q0 97-37 151.8t-107.4 54.7q-31.4 0-58-10t-40.4-27q-48.1 37.7-90.7 37.7-71.8 0-104-45t-32-132.9q0-85.8 30-126.2t97.7-40.5q21.6 0 43.2 12.5l9 5v-7.7h121.5v119.3q0 81.6 1.4 86.5.7 14.6 4.2 20.9t13.3 6.3q18 0 23.7-26.2t5.6-79.2V500q0-99-47.1-145t-145.5-46q-64.9 0-112 28.2t-72.5 80.6q-25.5 52.3-25.5 122 0 108.2 48.8 162T332 755.3l99.7-5.6 5 104.7q-56 7.6-104.7 7.6-80.3 0-139.2-16.7ZM358.5 597a343.5 343.5 0 0 1-2.8-42.5v-78.9a160.4 160.4 0 0 0-23-2q-15.4 0-22.4 5.2t-9.3 17.8q-2.5 12.5-2.5 38.3 0 69.8 23.7 69.8 25.1 0 36.3-7.7Z" fill="#0045ff"/><path d="M192.8 845.4q-59-16.7-103-53Q2 714.9 2 531.4 2 429 43.5 354.6t116.8-113.4q75.4-39 174.4-39 98.4 0 167.8 35.2t106 102.2q36.7 67 36.7 161.1v3.5q0 97-37 151.8t-107.4 54.7q-31.4 0-58-10t-40.4-27q-48.1 37.7-90.7 37.7-71.8 0-104-45t-32-132.9q0-85.8 30-126.2t97.7-40.5q21.6 0 43.2 12.5l9 5v-7.7h121.5v119.3q0 81.6 1.4 86.5.7 14.6 4.2 20.9t13.3 6.3q18 0 23.7-26.2t5.6-79.2V500q0-99-47.1-145t-145.5-46q-64.9 0-112 28.2t-72.5 80.6q-25.5 52.3-25.5 122 0 108.2 48.8 162T332 755.3l99.7-5.6 5 104.7q-56 7.6-104.7 7.6-80.3 0-139.2-16.7ZM358.5 597a343.5 343.5 0 0 1-2.8-42.5v-78.9a160.4 160.4 0 0 0-23-2q-15.4 0-22.4 5.2t-9.3 17.8q-2.5 12.5-2.5 38.3 0 69.8 23.7 69.8 25.1 0 36.3-7.7Z" fill="none" stroke="#231f20" stroke-miterlimit="10" stroke-width="3.9"/><path d="M222.2 816q-59-16.8-102.9-53-87.9-77.5-87.9-261 0-102.5 41.5-176.8t116.9-113.4q75.3-39 174.4-39 98.4 0 167.8 35.1t106 102.2q36.6 67 36.6 161.2v3.5q0 97-37 151.7t-107.4 54.8q-31.4 0-57.9-10.1T432 644.3Q383.7 682 341.2 682q-71.9 0-104-45t-32-133q0-85.8 30-126.2t97.6-40.5q21.6 0 43.2 12.6l9.1 4.9V347h121.4v119.3q0 81.6 1.4 86.5.7 14.7 4.2 21t13.2 6.2q18.2 0 23.8-26.2t5.5-79.1v-4.2q0-99-47-145.1t-145.5-46q-64.9 0-112 28.2t-72.5 80.6q-25.5 52.3-25.5 122 0 108.2 48.8 162T361.4 726l99.8-5.6L466 825q-55.9 7.7-104.7 7.7-80.2 0-139.2-16.8ZM388 567.5a343.5 343.5 0 0 1-2.8-42.6v-78.8a160.4 160.4 0 0 0-23-2.1q-15.4 0-22.4 5.2t-9.4 17.8q-2.4 12.6-2.4 38.4 0 69.8 23.6 69.8 25.2 0 36.4-7.7Z" fill="#0045ff"/><path d="M222.2 816q-59-16.8-102.9-53-87.9-77.5-87.9-261 0-102.5 41.5-176.8t116.9-113.4q75.3-39 174.4-39 98.4 0 167.8 35.1t106 102.2q36.6 67 36.6 161.2v3.5q0 97-37 151.7t-107.4 54.8q-31.4 0-57.9-10.1T432 644.3Q383.7 682 341.2 682q-71.9 0-104-45t-32-133q0-85.8 30-126.2t97.6-40.5q21.6 0 43.2 12.6l9.1 4.9V347h121.4v119.3q0 81.6 1.4 86.5.7 14.7 4.2 21t13.2 6.2q18.2 0 23.8-26.2t5.5-79.1v-4.2q0-99-47-145.1t-145.5-46q-64.9 0-112 28.2t-72.5 80.6q-25.5 52.3-25.5 122 0 108.2 48.8 162T361.4 726l99.8-5.6L466 825q-55.9 7.7-104.7 7.7-80.2 0-139.2-16.8ZM388 567.5a343.5 343.5 0 0 1-2.8-42.6v-78.8a160.4 160.4 0 0 0-23-2.1q-15.4 0-22.4 5.2t-9.4 17.8q-2.4 12.6-2.4 38.4 0 69.8 23.6 69.8 25.2 0 36.4-7.7Z" fill="none" stroke="#231f20" stroke-miterlimit="10" stroke-width="3.9"/><path d="M251.7 786.5q-59-16.7-103-53Q61 656.1 61 472.5q0-102.5 41.5-176.8t116.8-113.4q75.4-39 174.4-39 98.4 0 167.8 35.2t106 102.2q36.7 67 36.7 161.2v3.5q0 97-37 151.7t-107.4 54.8q-31.4 0-58-10.2T461.4 615q-48.1 37.7-90.7 37.7-71.8 0-104-45t-32-133q0-85.8 30-126.2t97.6-40.5q21.7 0 43.3 12.6l9 4.9v-7.7H536V437q0 81.6 1.4 86.5.7 14.6 4.1 21t13.3 6.2q18.1 0 23.7-26.2t5.6-79.2v-4.1q0-99-47-145.1t-145.6-46q-64.8 0-112 28.2T207 359q-25.5 52.3-25.5 122 0 108.2 48.9 162t160.4 53.7l99.8-5.6 4.9 104.6q-55.8 7.6-104.7 7.7-80.2 0-139.1-16.8Zm165.6-248.4a343.5 343.5 0 0 1-2.7-42.5v-78.9a161.8 161.8 0 0 0-23-2q-15.4 0-22.4 5.2t-9.4 17.8q-2.4 12.5-2.4 38.4 0 69.7 23.7 69.7 25.1 0 36.2-7.7Z" fill="#0045ff"/><path d="M251.7 786.5q-59-16.7-103-53Q61 656.1 61 472.5q0-102.5 41.5-176.8t116.8-113.4q75.4-39 174.4-39 98.4 0 167.8 35.2t106 102.2q36.7 67 36.7 161.2v3.5q0 97-37 151.7t-107.4 54.8q-31.4 0-58-10.2T461.4 615q-48.1 37.7-90.7 37.7-71.8 0-104-45t-32-133q0-85.8 30-126.2t97.6-40.5q21.7 0 43.3 12.6l9 4.9v-7.7H536V437q0 81.6 1.4 86.5.7 14.6 4.1 21t13.3 6.2q18.1 0 23.7-26.2t5.6-79.2v-4.1q0-99-47-145.1t-145.6-46q-64.8 0-112 28.2T207 359q-25.5 52.3-25.5 122 0 108.2 48.9 162t160.4 53.7l99.8-5.6 4.9 104.6q-55.8 7.6-104.7 7.7-80.2 0-139.1-16.8Zm165.6-248.4a343.5 343.5 0 0 1-2.7-42.5v-78.9a161.8 161.8 0 0 0-23-2q-15.4 0-22.4 5.2t-9.4 17.8q-2.4 12.5-2.4 38.4 0 69.7 23.7 69.7 25.1 0 36.2-7.7Z" fill="none" stroke="#231f20" stroke-miterlimit="10" stroke-width="3.9"/><path d="M281.1 757q-59-16.7-103-53-87.8-77.4-87.8-260.9 0-102.5 41.5-176.8t116.8-113.4q75.4-39 174.5-39 98.3 0 167.8 35.2t106 102.2q36.6 67 36.6 161.2v3.5q0 97-37 151.7t-107.4 54.7q-31.4 0-57.9-10t-40.5-27q-48 37.7-90.6 37.7-72 0-104-45T264 445.2q0-85.8 30-126.3t97.6-40.4q21.6 0 43.3 12.5l9 5v-7.8h121.5v119.3q0 81.7 1.4 86.6.7 14.6 4.2 20.9t13.2 6.3q18.2 0 23.7-26.2t5.6-79.1v-4.2q0-99-47-145.1T421 220.6q-65 0-112 28.2t-72.6 80.6Q211 381.7 211 451.5q0 108.2 48.8 161.8t160.5 53.8l99.7-5.6 5 104.6q-55.9 7.7-104.7 7.7-80.3 0-139.2-16.7Zm165.7-248.3a343.8 343.8 0 0 1-2.8-42.5v-78.9a161.8 161.8 0 0 0-23-2q-15.4 0-22.4 5.1t-9.4 17.8q-2.4 12.6-2.4 38.4 0 69.8 23.7 69.8 25.1 0 36.3-7.7Z" fill="#0045ff"/><path d="M281.1 757q-59-16.7-103-53-87.8-77.4-87.8-260.9 0-102.5 41.5-176.8t116.8-113.4q75.4-39 174.5-39 98.3 0 167.8 35.2t106 102.2q36.6 67 36.6 161.2v3.5q0 97-37 151.7t-107.4 54.7q-31.4 0-57.9-10t-40.5-27q-48 37.7-90.6 37.7-72 0-104-45T264 445.2q0-85.8 30-126.3t97.6-40.4q21.6 0 43.3 12.5l9 5v-7.8h121.5v119.3q0 81.7 1.4 86.6.7 14.6 4.2 20.9t13.2 6.3q18.2 0 23.7-26.2t5.6-79.1v-4.2q0-99-47-145.1T421 220.6q-65 0-112 28.2t-72.6 80.6Q211 381.7 211 451.5q0 108.2 48.8 161.8t160.5 53.8l99.7-5.6 5 104.6q-55.9 7.7-104.7 7.7-80.3 0-139.2-16.7Zm165.7-248.3a343.8 343.8 0 0 1-2.8-42.5v-78.9a161.8 161.8 0 0 0-23-2q-15.4 0-22.4 5.1t-9.4 17.8q-2.4 12.6-2.4 38.4 0 69.8 23.7 69.8 25.1 0 36.3-7.7Z" fill="none" stroke="#231f20" stroke-miterlimit="10" stroke-width="3.9"/><path d="M310.5 727.6q-59-16.7-102.9-53-87.9-77.4-87.9-260.9 0-102.5 41.5-176.8t116.9-113.4q75.3-39.1 174.4-39.1 98.4 0 167.8 35.2t106 102.2Q763 288.8 763 383v3.5q0 97-37 151.7T618.6 593q-31.4 0-58-10.1T520.3 556q-48.2 37.7-90.7 37.7-71.9 0-104-45t-32.1-133q0-85.7 30-126.2t97.7-40.5q21.6 0 43.2 12.6l9.1 4.9v-7.7h121.4v119.3q0 81.6 1.4 86.5.7 14.7 4.2 21t13.3 6.2q18.1 0 23.7-26.1t5.6-79.2v-4.2q0-99-47.1-145.1t-145.5-46q-64.9 0-112 28.3T265.8 300q-25.4 52.3-25.4 122 0 108.2 48.9 162t160.4 53.6l99.8-5.6 4.9 104.7q-55.9 7.7-104.7 7.7-80.2 0-139.2-16.8Zm165.7-248.3a343.6 343.6 0 0 1-2.8-42.6V358a161.8 161.8 0 0 0-23-2.1q-15.3 0-22.3 5.2t-9.4 17.8q-2.5 12.6-2.5 38.4 0 69.8 23.8 69.7 25 0 36.2-7.6Z" fill="#0045ff"/><path d="M310.5 727.6q-59-16.7-102.9-53-87.9-77.4-87.9-260.9 0-102.5 41.5-176.8t116.9-113.4q75.3-39.1 174.4-39.1 98.4 0 167.8 35.2t106 102.2Q763 288.8 763 383v3.5q0 97-37 151.7T618.6 593q-31.4 0-58-10.1T520.3 556q-48.2 37.7-90.7 37.7-71.9 0-104-45t-32.1-133q0-85.7 30-126.2t97.7-40.5q21.6 0 43.2 12.6l9.1 4.9v-7.7h121.4v119.3q0 81.6 1.4 86.5.7 14.7 4.2 21t13.3 6.2q18.1 0 23.7-26.1t5.6-79.2v-4.2q0-99-47.1-145.1t-145.5-46q-64.9 0-112 28.3T265.8 300q-25.4 52.3-25.4 122 0 108.2 48.9 162t160.4 53.6l99.8-5.6 4.9 104.7q-55.9 7.7-104.7 7.7-80.2 0-139.2-16.8Zm165.7-248.3a343.6 343.6 0 0 1-2.8-42.6V358a161.8 161.8 0 0 0-23-2.1q-15.3 0-22.3 5.2t-9.4 17.8q-2.5 12.6-2.5 38.4 0 69.8 23.8 69.7 25 0 36.2-7.6Z" fill="none" stroke="#231f20" stroke-miterlimit="10" stroke-width="3.9"/><path d="M340 698.2q-59-16.8-103-53-87.8-77.5-87.8-260.9 0-102.6 41.5-176.9T307.5 94Q383 55 482 55q98.3 0 167.7 35.2t106 102.2q36.7 67 36.7 161.1v3.5q0 97-37 151.8T648 563.5q-31.4 0-58-10t-40.4-27q-48.1 37.7-90.6 37.7-72 0-104-45t-32.1-132.9q0-85.8 30-126.3t97.7-40.4q21.6 0 43.2 12.5l9 4.9v-7.7h121.5v119.3q0 81.6 1.4 86.5.6 14.7 4.1 21t13.3 6.2q18.1 0 23.7-26.1t5.6-79.2v-4.2q0-99-47-145.1t-145.5-46q-65 0-112 28.3t-72.6 80.5q-25.5 52.3-25.5 122.1 0 108.2 48.9 161.9t160.5 53.7l99.8-5.6 4.8 104.7q-55.8 7.6-104.6 7.6-80.2 0-139.2-16.7Zm165.7-248.4a341.7 341.7 0 0 1-2.8-42.5v-78.9a162 162 0 0 0-23-2q-15.4 0-22.3 5.2t-9.5 17.8q-2.4 12.5-2.4 38.3 0 69.8 23.7 69.8 25.1 0 36.3-7.7Z" fill="#0045ff"/><path d="M340 698.2q-59-16.8-103-53-87.8-77.5-87.8-260.9 0-102.6 41.5-176.9T307.5 94Q383 55 482 55q98.3 0 167.7 35.2t106 102.2q36.7 67 36.7 161.1v3.5q0 97-37 151.8T648 563.5q-31.4 0-58-10t-40.4-27q-48.1 37.7-90.6 37.7-72 0-104-45t-32.1-132.9q0-85.8 30-126.3t97.7-40.4q21.6 0 43.2 12.5l9 4.9v-7.7h121.5v119.3q0 81.6 1.4 86.5.6 14.7 4.1 21t13.3 6.2q18.1 0 23.7-26.1t5.6-79.2v-4.2q0-99-47-145.1t-145.5-46q-65 0-112 28.3t-72.6 80.5q-25.5 52.3-25.5 122.1 0 108.2 48.9 161.9t160.5 53.7l99.8-5.6 4.8 104.7q-55.8 7.6-104.6 7.6-80.2 0-139.2-16.7Zm165.7-248.4a341.7 341.7 0 0 1-2.8-42.5v-78.9a162 162 0 0 0-23-2q-15.4 0-22.3 5.2t-9.5 17.8q-2.4 12.5-2.4 38.3 0 69.8 23.7 69.8 25.1 0 36.3-7.7Z" fill="none" stroke="#231f20" stroke-miterlimit="10" stroke-width="3.9"/><path d="M369.4 668.8q-59-16.8-102.9-53-87.9-77.5-87.9-261 0-102.5 41.5-176.9T337 64.6q75.3-39 174.4-39 98.4 0 167.8 35.1t106 102.2q36.6 67 36.6 161.2v3.5q0 97-37 151.7t-107.4 54.8q-31.4 0-57.9-10.1T579.1 497q-48.1 37.7-90.7 37.7-71.9 0-104-45t-32-132.9q0-85.8 30-126.3t97.6-40.4q21.6 0 43.2 12.5l9 4.9v-7.7h121.5v119.3q0 81.6 1.4 86.5.7 14.7 4.2 21t13.3 6.2q18 0 23.7-26.1t5.6-79.2v-4.2q0-99-47.1-145.1t-145.5-46q-64.9 0-112 28.3T324.8 241q-25.5 52.3-25.5 122 0 108.2 48.8 162t160.5 53.7l99.8-5.6 4.9 104.6q-55.9 7.7-104.7 7.7-80.2 0-139.2-16.8Zm165.7-248.4a341.7 341.7 0 0 1-2.8-42.6V299a162 162 0 0 0-23-2.1q-15.3 0-22.3 5.2t-9.4 17.8q-2.5 12.6-2.5 38.4 0 69.8 23.8 69.8 25 0 36.2-7.7Z" fill="#0045ff"/><path d="M369.4 668.8q-59-16.8-102.9-53-87.9-77.5-87.9-261 0-102.5 41.5-176.9T337 64.6q75.3-39 174.4-39 98.4 0 167.8 35.1t106 102.2q36.6 67 36.6 161.2v3.5q0 97-37 151.7t-107.4 54.8q-31.4 0-57.9-10.1T579.1 497q-48.1 37.7-90.7 37.7-71.9 0-104-45t-32-132.9q0-85.8 30-126.3t97.6-40.4q21.6 0 43.2 12.5l9 4.9v-7.7h121.5v119.3q0 81.6 1.4 86.5.7 14.7 4.2 21t13.3 6.2q18 0 23.7-26.1t5.6-79.2v-4.2q0-99-47.1-145.1t-145.5-46q-64.9 0-112 28.3T324.8 241q-25.5 52.3-25.5 122 0 108.2 48.8 162t160.5 53.7l99.8-5.6 4.9 104.6q-55.9 7.7-104.7 7.7-80.2 0-139.2-16.8Zm165.7-248.4a341.7 341.7 0 0 1-2.8-42.6V299a162 162 0 0 0-23-2.1q-15.3 0-22.3 5.2t-9.4 17.8q-2.5 12.6-2.5 38.4 0 69.8 23.8 69.8 25 0 36.2-7.7Z" fill="none" stroke="#231f20" stroke-miterlimit="10" stroke-width="3.9"/><path d="M393 645.2q-59-16.7-103-53-87.8-77.5-87.8-260.9 0-102.5 41.5-176.8T360.5 41Q436 2 535 2q98.3 0 167.8 35.2t106 102.2q36.6 67 36.6 161.2v3.4q0 97-37 151.8T701 510.6q-31.4 0-58-10.2t-40.4-26.8q-48.1 37.6-90.6 37.7-72 0-104-45t-32.1-132.9q0-85.8 30-126.3t97.6-40.4q21.7 0 43.3 12.5l9 4.9v-7.7h121.5v119.3q0 81.7 1.4 86.5.6 14.7 4.1 21t13.3 6.2q18.1 0 23.7-26.1t5.6-79.2v-4.2q0-99-47-145.1t-145.6-46q-64.8 0-112 28.3t-72.5 80.5q-25.5 52.4-25.5 122.1 0 108.2 48.9 161.9t160.5 53.6l99.8-5.6 4.8 104.7Q581 662 532.2 662 452 662 393 645.2Zm165.7-248.4a343.6 343.6 0 0 1-2.8-42.5v-78.9a161.8 161.8 0 0 0-23-2q-15.4 0-22.4 5.2t-9.4 17.8q-2.4 12.5-2.4 38.3 0 69.8 23.7 69.8 25.1 0 36.3-7.7Z" fill="#00d4ff"/><path d="M393 645.2q-59-16.7-103-53-87.8-77.5-87.8-260.9 0-102.5 41.5-176.8T360.5 41Q436 2 535 2q98.3 0 167.8 35.2t106 102.2q36.6 67 36.6 161.2v3.4q0 97-37 151.8T701 510.6q-31.4 0-58-10.2t-40.4-26.8q-48.1 37.6-90.6 37.7-72 0-104-45t-32.1-132.9q0-85.8 30-126.3t97.6-40.4q21.7 0 43.3 12.5l9 4.9v-7.7h121.5v119.3q0 81.7 1.4 86.5.6 14.7 4.1 21t13.3 6.2q18.1 0 23.7-26.1t5.6-79.2v-4.2q0-99-47-145.1t-145.6-46q-64.8 0-112 28.3t-72.5 80.5q-25.5 52.4-25.5 122.1 0 108.2 48.9 161.9t160.5 53.6l99.8-5.6 4.8 104.7Q581 662 532.2 662 452 662 393 645.2Zm165.7-248.4a343.6 343.6 0 0 1-2.8-42.5v-78.9a161.8 161.8 0 0 0-23-2q-15.4 0-22.4 5.2t-9.4 17.8q-2.4 12.5-2.4 38.3 0 69.8 23.7 69.8 25.1 0 36.3-7.7Z" fill="none" stroke="#231f20" stroke-miterlimit="10" stroke-width="3.9"/></svg>